# xmcd CD database file generated by Grip 3.4.3
# 
# Track frame offsets:
#       182
#       15230
#       27305
#       44025
#       65357
#       75682
#       88410
#       110297
#       121507
#       135515
#       150067
#       158452
# 
# Disc length: 2276 seconds
# 
# Revision: 43
# Processed by: cddbd v1.5.2PL0 Copyright (c) Steve Scherf et al.
# Submitted via: Grip 3.4.3
# 
DISCID=7f08e20c
DTITLE=Simon Standage (violin), The English Concert - Trevor Pinnock - V
DTITLE=ivaldi - Le Quattro Stagioni
DYEAR=1982
DGENRE=Classical
TTITLE0=La Primavera Op 8 No 1 RV 269 - 1. Allegro
TTITLE1=2. Largo e pianissimo sempre
TTITLE2=3. Danza pastorale. Allegro
TTITLE3=L´Estate Op 8 No 2 RV 315 - 1. Allegro non molto
TTITLE4=2. Adagio - Presto
TTITLE5=3. Presto
TTITLE6=L´Autunno Op 8 No 3 RV  - 1. Allegro
TTITLE7=2. Adagio
TTITLE8=3. Allegro
TTITLE9=L´Inverno Op 8 No 4 RV 297 - 1. Allegro non molto
TTITLE10=2. Largo
TTITLE11=3. Allegro
EXTD=
EXTT0=
EXTT1=
EXTT2=
EXTT3=
EXTT4=
EXTT5=
EXTT6=
EXTT7=
EXTT8=
EXTT9=
EXTT10=
EXTT11=
PLAYORDER=
